<svg xmlns="http://www.w3.org/2000/svg" xmlns:xlink="http://www.w3.org/1999/xlink" width="1080" zoomAndPan="magnify" viewBox="0 0 810 809.999993" height="1080" preserveAspectRatio="xMidYMid meet" version="1.0"><defs><clipPath id="51adc34271"><path d="M 292 44.15625 L 518 44.15625 L 518 186 L 292 186 Z M 292 44.15625 " clip-rule="nonzero"/></clipPath><clipPath id="44ce248756"><path d="M 169.464844 138 L 640.464844 138 L 640.464844 765.65625 L 169.464844 765.65625 Z M 169.464844 138 " clip-rule="nonzero"/></clipPath></defs><g clip-path="url(#51adc34271)"><path fill="#c6b7e0" d="M 486.230469 88.34375 C 486.230469 64.191406 466.621094 44.601562 442.46875 44.601562 L 367.464844 44.601562 C 343.3125 44.601562 323.703125 64.191406 323.703125 88.34375 L 292.460938 88.34375 L 292.460938 185.578125 L 517.472656 185.578125 L 517.472656 88.34375 L 486.230469 88.34375 " fill-opacity="1" fill-rule="nonzero"/></g><path fill="#8a42a0" d="M 424.796875 86.976562 C 424.796875 97.90625 415.929688 106.804688 404.964844 106.804688 C 394.003906 106.804688 385.136719 97.90625 385.136719 86.976562 C 385.136719 76.011719 394.003906 67.113281 404.964844 67.113281 C 415.929688 67.113281 424.796875 76.011719 424.796875 86.976562 " fill-opacity="1" fill-rule="nonzero"/><g clip-path="url(#44ce248756)"><path fill="#2749a4" d="M 640.5 720.007812 C 640.5 744.984375 619.746094 765.195312 594.160156 765.195312 L 215.773438 765.195312 C 190.1875 765.195312 169.433594 744.984375 169.433594 720.007812 L 169.433594 183.863281 C 169.433594 158.886719 190.1875 138.644531 215.773438 138.644531 L 594.160156 138.644531 C 619.746094 138.644531 640.5 158.886719 640.5 183.863281 L 640.5 720.007812 " fill-opacity="1" fill-rule="nonzero"/></g><path fill="#ffffff" d="M 611.640625 680.507812 C 611.640625 701.796875 593.460938 719.054688 570.992188 719.054688 L 238.941406 719.054688 C 216.472656 719.054688 198.292969 701.796875 198.292969 680.507812 L 198.292969 223.332031 C 198.292969 202.039062 216.472656 184.785156 238.941406 184.785156 L 570.992188 184.785156 C 593.460938 184.785156 611.640625 202.039062 611.640625 223.332031 L 611.640625 680.507812 " fill-opacity="1" fill-rule="nonzero"/><path fill="#8a42a0" d="M 558.34375 271.347656 L 341.65625 271.347656 L 341.65625 254.535156 L 558.34375 254.535156 L 558.34375 271.347656 " fill-opacity="1" fill-rule="nonzero"/><path fill="#8a42a0" d="M 558.34375 334.359375 L 341.65625 334.359375 L 341.65625 317.519531 L 558.34375 317.519531 L 558.34375 334.359375 " fill-opacity="1" fill-rule="nonzero"/><path fill="#8a42a0" d="M 558.34375 397.34375 L 341.65625 397.34375 L 341.65625 380.53125 L 558.34375 380.53125 L 558.34375 397.34375 " fill-opacity="1" fill-rule="nonzero"/><path fill="#8a42a0" d="M 558.34375 460.355469 L 341.65625 460.355469 L 341.65625 443.515625 L 558.34375 443.515625 L 558.34375 460.355469 " fill-opacity="1" fill-rule="nonzero"/><path fill="#8a42a0" d="M 558.34375 523.339844 L 341.65625 523.339844 L 341.65625 506.496094 L 558.34375 506.496094 L 558.34375 523.339844 " fill-opacity="1" fill-rule="nonzero"/><path fill="#8a42a0" d="M 558.34375 586.351562 L 341.65625 586.351562 L 341.65625 569.511719 L 558.34375 569.511719 L 558.34375 586.351562 " fill-opacity="1" fill-rule="nonzero"/><path fill="#8a42a0" d="M 558.34375 649.335938 L 238.402344 649.335938 L 238.402344 632.492188 L 558.34375 632.492188 L 558.34375 649.335938 " fill-opacity="1" fill-rule="nonzero"/><path fill="#8a42a0" d="M 316.804688 332.929688 L 238.402344 332.929688 L 238.402344 254.535156 L 316.804688 254.535156 L 316.804688 332.929688 " fill-opacity="1" fill-rule="nonzero"/><path fill="#8a42a0" d="M 316.804688 444.117188 L 238.402344 444.117188 L 238.402344 365.691406 L 316.804688 365.691406 L 316.804688 444.117188 " fill-opacity="1" fill-rule="nonzero"/><path fill="#8a42a0" d="M 316.804688 555.304688 L 238.402344 555.304688 L 238.402344 476.878906 L 316.804688 476.878906 L 316.804688 555.304688 " fill-opacity="1" fill-rule="nonzero"/><path fill="#ffffff" d="M 270.882812 322.824219 C 269.640625 322.824219 268.433594 322.378906 267.449219 321.523438 L 249.84375 305.792969 C 247.679688 303.855469 247.488281 300.582031 249.398438 298.453125 C 251.304688 296.324219 254.609375 296.101562 256.738281 298.007812 L 267.925781 308.015625 C 271.167969 298.421875 279.144531 282.53125 298.53125 265.878906 C 300.722656 264.039062 303.996094 264.261719 305.871094 266.453125 C 307.746094 268.613281 307.492188 271.917969 305.300781 273.792969 C 278.445312 296.800781 276.09375 317.898438 276.09375 318.121094 C 275.902344 320.027344 274.632812 321.746094 272.820312 322.445312 C 272.183594 322.699219 271.546875 322.824219 270.882812 322.824219 " fill-opacity="1" fill-rule="nonzero"/><path fill="#ffffff" d="M 270.882812 433.980469 C 269.640625 433.980469 268.433594 433.535156 267.449219 432.679688 L 249.84375 416.949219 C 247.679688 415.042969 247.488281 411.769531 249.398438 409.640625 C 251.304688 407.480469 254.609375 407.289062 256.738281 409.195312 L 267.925781 419.171875 C 271.167969 409.609375 279.144531 393.6875 298.53125 377.070312 C 300.722656 375.195312 303.996094 375.449219 305.871094 377.640625 C 307.746094 379.800781 307.492188 383.074219 305.300781 384.949219 C 278.445312 407.988281 276.09375 429.054688 276.09375 429.277344 C 275.902344 431.214844 274.632812 432.933594 272.820312 433.632812 C 272.183594 433.855469 271.546875 433.980469 270.882812 433.980469 " fill-opacity="1" fill-rule="nonzero"/><path fill="#ffffff" d="M 270.882812 544.023438 C 269.640625 544.023438 268.433594 543.546875 267.449219 542.691406 L 249.84375 526.992188 C 247.679688 525.054688 247.488281 521.78125 249.398438 519.652344 C 251.304688 517.492188 254.609375 517.300781 256.738281 519.207031 L 267.925781 529.183594 C 271.167969 519.621094 279.144531 503.699219 298.53125 487.082031 C 300.722656 485.238281 303.996094 485.460938 305.871094 487.652344 C 307.746094 489.8125 307.492188 493.117188 305.300781 494.992188 C 278.445312 518 276.09375 539.066406 276.09375 539.289062 C 275.902344 541.230469 274.632812 542.945312 272.820312 543.644531 C 272.183594 543.898438 271.546875 544.023438 270.882812 544.023438 " fill-opacity="1" fill-rule="nonzero"/></svg>