<svg xmlns="http://www.w3.org/2000/svg" xmlns:xlink="http://www.w3.org/1999/xlink" width="1080" zoomAndPan="magnify" viewBox="0 0 810 809.999993" height="1080" preserveAspectRatio="xMidYMid meet" version="1.0"><defs><clipPath id="2eec44d04b"><path d="M 490 45.519531 L 763.71875 45.519531 L 763.71875 319 L 490 319 Z M 490 45.519531 " clip-rule="nonzero"/></clipPath><clipPath id="7fc01affc4"><path d="M 726 169 L 763.71875 169 L 763.71875 195 L 726 195 Z M 726 169 " clip-rule="nonzero"/></clipPath><clipPath id="b9fc0fd4f4"><path d="M 614 45.519531 L 640 45.519531 L 640 83 L 614 83 Z M 614 45.519531 " clip-rule="nonzero"/></clipPath><clipPath id="8ec6492320"><path d="M 193 591 L 603 591 L 603 764.769531 L 193 764.769531 Z M 193 591 " clip-rule="nonzero"/></clipPath></defs><g clip-path="url(#2eec44d04b)"><path fill="#008cb7" d="M 763.472656 181.929688 C 763.472656 257.265625 702.453125 318.339844 627.175781 318.339844 C 551.902344 318.339844 490.878906 257.265625 490.878906 181.929688 C 490.878906 106.589844 551.902344 45.519531 627.175781 45.519531 C 702.453125 45.519531 763.472656 106.589844 763.472656 181.929688 " fill-opacity="1" fill-rule="nonzero"/></g><path fill="#8bb276" d="M 428.925781 591.15625 C 428.925781 645.949219 384.550781 690.363281 329.804688 690.363281 C 275.054688 690.363281 230.679688 645.949219 230.679688 591.15625 C 230.679688 536.363281 275.054688 491.949219 329.804688 491.949219 C 384.550781 491.949219 428.925781 536.363281 428.925781 591.15625 " fill-opacity="1" fill-rule="nonzero"/><path fill="#62b8d3" d="M 172.199219 628.898438 C 114.027344 568.511719 81.992188 489.050781 81.992188 405.144531 C 81.992188 360.316406 91.011719 316.925781 108.800781 276.171875 L 131.511719 286.101562 C 115.097656 323.703125 106.773438 363.757812 106.773438 405.144531 C 106.773438 482.59375 136.347656 555.945312 190.035156 611.683594 L 172.199219 628.898438 " fill-opacity="1" fill-rule="nonzero"/><path fill="#00779c" d="M 714.386719 77.109375 L 692.757812 98.753906 L 710.28125 116.292969 L 731.910156 94.644531 C 726.617188 88.28125 720.746094 82.40625 714.386719 77.109375 " fill-opacity="1" fill-rule="nonzero"/><g clip-path="url(#7fc01affc4)"><path fill="#00779c" d="M 726.300781 194.328125 L 762.902344 194.328125 C 763.273438 190.242188 763.472656 186.105469 763.472656 181.929688 C 763.472656 177.75 763.273438 173.613281 762.902344 169.527344 L 726.300781 169.527344 L 726.300781 194.328125 " fill-opacity="1" fill-rule="nonzero"/></g><path fill="#00779c" d="M 731.910156 269.214844 L 710.28125 247.566406 L 692.757812 265.101562 L 714.386719 286.75 C 720.746094 281.449219 726.617188 275.578125 731.910156 269.214844 " fill-opacity="1" fill-rule="nonzero"/><path fill="#00779c" d="M 614.785156 317.769531 C 618.871094 318.136719 623 318.339844 627.175781 318.339844 C 631.351562 318.339844 635.484375 318.136719 639.566406 317.769531 L 639.566406 281.136719 L 614.785156 281.136719 L 614.785156 317.769531 " fill-opacity="1" fill-rule="nonzero"/><path fill="#00779c" d="M 522.445312 269.214844 C 527.738281 275.578125 533.605469 281.449219 539.964844 286.75 L 561.59375 265.101562 L 544.074219 247.566406 L 522.445312 269.214844 " fill-opacity="1" fill-rule="nonzero"/><path fill="#00779c" d="M 491.449219 194.328125 L 528.050781 194.328125 L 528.050781 169.527344 L 491.449219 169.527344 C 491.078125 173.613281 490.878906 177.75 490.878906 181.929688 C 490.878906 186.105469 491.078125 190.242188 491.449219 194.328125 " fill-opacity="1" fill-rule="nonzero"/><path fill="#00779c" d="M 522.445312 94.644531 L 544.074219 116.292969 L 561.59375 98.753906 L 539.964844 77.109375 C 533.605469 82.40625 527.738281 88.28125 522.445312 94.644531 " fill-opacity="1" fill-rule="nonzero"/><g clip-path="url(#b9fc0fd4f4)"><path fill="#00779c" d="M 639.566406 46.089844 C 635.484375 45.71875 631.351562 45.519531 627.175781 45.519531 C 623 45.519531 618.871094 45.71875 614.785156 46.089844 L 614.785156 82.722656 L 639.566406 82.722656 L 639.566406 46.089844 " fill-opacity="1" fill-rule="nonzero"/></g><path fill="#62b8d3" d="M 598.765625 227.898438 L 581.246094 210.363281 L 614.785156 176.792969 L 614.785156 107.523438 L 639.566406 107.523438 L 639.566406 181.929688 C 639.566406 185.214844 638.261719 188.371094 635.9375 190.695312 L 598.765625 227.898438 " fill-opacity="1" fill-rule="nonzero"/><path fill="#008cb7" d="M 218.289062 119.925781 L 218.289062 243.933594 L 292.632812 243.933594 L 292.632812 119.925781 L 218.289062 119.925781 " fill-opacity="1" fill-rule="nonzero"/><path fill="#ffcbb1" d="M 168.726562 132.324219 L 131.554688 70.320312 L 118.59375 70.320312 C 101.0625 70.320312 89.078125 88.042969 95.585938 104.332031 L 106.773438 132.324219 L 72.503906 132.324219 C 57.738281 132.324219 46.25 145.175781 47.875 159.863281 L 54.761719 221.867188 C 56.160156 234.433594 66.765625 243.933594 79.390625 243.933594 L 133.679688 243.933594 C 140.253906 243.933594 146.550781 241.316406 151.203125 236.667969 L 168.726562 219.132812 L 218.289062 219.132812 L 218.289062 132.324219 L 168.726562 132.324219 " fill-opacity="1" fill-rule="nonzero"/><g clip-path="url(#8ec6492320)"><path fill="#ffcbb1" d="M 478.488281 628.359375 L 441.316406 591.15625 L 354.585938 591.15625 C 354.585938 618.550781 376.777344 640.761719 404.144531 640.761719 L 428.925781 640.761719 L 379.367188 690.363281 L 235.949219 646.199219 C 225.46875 642.96875 214.121094 647.015625 208.039062 656.148438 L 193.507812 677.964844 L 404.144531 764.769531 L 478.488281 727.566406 L 602.394531 727.566406 L 602.394531 628.359375 L 478.488281 628.359375 " fill-opacity="1" fill-rule="nonzero"/></g><path fill="#008cb7" d="M 404.144531 380.34375 C 390.460938 380.34375 379.367188 369.238281 379.367188 355.539062 C 379.367188 341.84375 390.460938 330.738281 404.144531 330.738281 C 417.832031 330.738281 428.925781 341.84375 428.925781 355.539062 C 428.925781 369.238281 417.832031 380.34375 404.144531 380.34375 Z M 503.269531 368.578125 C 503.269531 354.480469 503.269531 356.601562 503.269531 342.503906 L 478.375 336.527344 C 474.890625 328.109375 473.566406 324.902344 470.082031 316.484375 L 483.503906 294.554688 C 473.546875 284.59375 475.035156 286.082031 465.082031 276.117188 L 443.167969 289.550781 C 434.761719 286.0625 431.554688 284.738281 423.144531 281.25 L 417.171875 256.332031 C 403.085938 256.332031 405.207031 256.332031 391.121094 256.332031 L 385.148438 281.25 C 376.738281 284.738281 373.53125 286.0625 365.125 289.550781 L 343.210938 276.117188 C 333.257812 286.082031 334.746094 284.59375 324.789062 294.554688 L 338.210938 316.484375 C 334.726562 324.902344 333.402344 328.109375 329.917969 336.527344 L 305.023438 342.503906 C 305.023438 356.601562 305.023438 354.480469 305.023438 368.578125 L 329.917969 374.554688 C 333.402344 382.96875 334.726562 386.179688 338.210938 394.597656 L 324.789062 416.527344 C 334.746094 426.488281 333.257812 425 343.210938 434.964844 L 365.125 421.527344 C 373.53125 425.015625 376.738281 426.34375 385.148438 429.832031 L 391.121094 454.746094 C 405.207031 454.746094 403.085938 454.746094 417.171875 454.746094 L 423.144531 429.832031 C 431.554688 426.34375 434.761719 425.015625 443.167969 421.527344 L 465.082031 434.964844 C 475.035156 425 473.546875 426.488281 483.503906 416.527344 L 470.082031 394.597656 C 473.566406 386.179688 474.890625 382.96875 478.375 374.554688 L 503.269531 368.578125 " fill-opacity="1" fill-rule="nonzero"/><path fill="#62b8d3" d="M 640.351562 624.394531 L 622.183594 607.523438 C 673.34375 552.34375 701.519531 480.46875 701.519531 405.144531 C 701.519531 385.101562 699.515625 365.070312 695.574219 345.605469 L 719.859375 340.675781 C 724.136719 361.757812 726.300781 383.449219 726.300781 405.144531 C 726.300781 486.75 695.777344 564.613281 640.351562 624.394531 " fill-opacity="1" fill-rule="nonzero"/><path fill="#62b8d3" d="M 332.769531 116.152344 L 326.839844 92.070312 C 351.996094 85.863281 378.003906 82.722656 404.144531 82.722656 C 425.824219 82.722656 447.496094 84.890625 468.5625 89.171875 L 463.636719 113.476562 C 444.1875 109.527344 424.171875 107.523438 404.144531 107.523438 C 380 107.523438 355.980469 110.425781 332.769531 116.152344 " fill-opacity="1" fill-rule="nonzero"/><path fill="#62b8d3" d="M 182.980469 542.402344 C 157.441406 501.269531 143.945312 453.804688 143.945312 405.144531 C 143.945312 356.484375 157.441406 309.019531 182.980469 267.886719 L 204.027344 280.972656 C 180.933594 318.175781 168.726562 361.117188 168.726562 405.144531 C 168.726562 449.171875 180.933594 492.113281 204.027344 529.316406 L 182.980469 542.402344 " fill-opacity="1" fill-rule="nonzero"/><path fill="#62b8d3" d="M 586.289062 591.121094 L 568.9375 573.410156 C 614.484375 528.722656 639.566406 468.964844 639.566406 405.144531 C 639.566406 389.273438 637.980469 373.414062 634.859375 358.011719 L 659.144531 353.070312 C 662.59375 370.097656 664.347656 387.621094 664.347656 405.144531 C 664.347656 475.6875 636.625 541.730469 586.289062 591.121094 " fill-opacity="1" fill-rule="nonzero"/><path fill="#62b8d3" d="M 333.519531 180.3125 L 326.089844 156.648438 C 351.261719 148.742188 377.519531 144.726562 404.144531 144.726562 C 421.65625 144.726562 439.164062 146.480469 456.175781 149.933594 L 451.238281 174.238281 C 435.847656 171.113281 420.003906 169.527344 404.144531 169.527344 C 380.042969 169.527344 356.277344 173.15625 333.519531 180.3125 " fill-opacity="1" fill-rule="nonzero"/><path fill="#abc79b" d="M 283.339844 632.175781 C 273.351562 620.84375 267.851562 606.277344 267.851562 591.15625 C 267.851562 556.96875 295.644531 529.152344 329.804688 529.152344 C 340.691406 529.152344 351.40625 532.023438 360.792969 537.453125 L 348.375 558.925781 C 342.761719 555.675781 336.34375 553.953125 329.804688 553.953125 C 309.304688 553.953125 292.632812 570.640625 292.632812 591.15625 C 292.632812 600.234375 295.929688 608.972656 301.917969 615.757812 L 283.339844 632.175781 " fill-opacity="1" fill-rule="nonzero"/></svg>