<svg xmlns="http://www.w3.org/2000/svg" xmlns:xlink="http://www.w3.org/1999/xlink" width="1080" zoomAndPan="magnify" viewBox="0 0 810 809.999993" height="1080" preserveAspectRatio="xMidYMid meet" version="1.0"><defs><clipPath id="eaab25d1a1"><path d="M 36.898438 504.679688 L 247.257812 504.679688 L 247.257812 767.507812 L 36.898438 767.507812 Z M 36.898438 504.679688 " clip-rule="nonzero"/></clipPath><clipPath id="f460ead8e4"><path d="M 299.710938 504.679688 L 510.253906 504.679688 L 510.253906 767.507812 L 299.710938 767.507812 Z M 299.710938 504.679688 " clip-rule="nonzero"/></clipPath><clipPath id="2656b8f599"><path d="M 562.707031 504.679688 L 773.070312 504.679688 L 773.070312 767.507812 L 562.707031 767.507812 Z M 562.707031 504.679688 " clip-rule="nonzero"/></clipPath></defs><path fill="#f0c8a0" d="M 299.816406 149.839844 L 299.816406 97.273438 L 168.355469 97.273438 C 139.316406 97.273438 115.773438 120.808594 115.773438 149.839844 L 115.773438 399.539062 L 94.925781 399.539062 C 83.214844 399.539062 77.347656 413.695312 85.628906 421.976562 L 132.769531 469.101562 C 137.902344 474.234375 146.226562 474.234375 151.359375 469.101562 L 198.5 421.976562 C 206.78125 413.695312 200.914062 399.539062 189.203125 399.539062 L 168.355469 399.539062 L 168.355469 149.839844 L 299.816406 149.839844 " fill-opacity="1" fill-rule="nonzero"/><path fill="#f0c8a0" d="M 715.039062 399.539062 L 694.195312 399.539062 L 694.195312 149.839844 C 694.195312 120.808594 670.648438 97.273438 641.609375 97.273438 L 510.152344 97.273438 L 510.152344 149.839844 L 641.609375 149.839844 L 641.609375 399.539062 L 620.761719 399.539062 C 609.050781 399.539062 603.1875 413.699219 611.46875 421.976562 L 658.605469 469.101562 C 663.738281 474.234375 672.0625 474.234375 677.199219 469.101562 L 724.335938 421.976562 C 732.617188 413.699219 726.75 399.539062 715.039062 399.539062 " fill-opacity="1" fill-rule="nonzero"/><g clip-path="url(#eaab25d1a1)"><path fill="#c80a50" d="M 234.085938 504.679688 L 50.042969 504.679688 C 42.78125 504.679688 36.898438 510.5625 36.898438 517.820312 L 36.898438 741.234375 C 36.898438 755.75 48.667969 767.519531 63.1875 767.519531 L 220.941406 767.519531 C 235.460938 767.519531 247.230469 755.75 247.230469 741.234375 L 247.230469 517.820312 C 247.230469 510.5625 241.347656 504.679688 234.085938 504.679688 " fill-opacity="1" fill-rule="nonzero"/></g><g clip-path="url(#f460ead8e4)"><path fill="#00a0c8" d="M 497.003906 504.679688 L 312.960938 504.679688 C 305.699219 504.679688 299.816406 510.5625 299.816406 517.820312 L 299.816406 741.234375 C 299.816406 755.75 311.585938 767.519531 326.105469 767.519531 L 483.855469 767.519531 C 498.378906 767.519531 510.148438 755.75 510.148438 741.234375 L 510.148438 517.820312 C 510.148438 510.5625 504.265625 504.679688 497.003906 504.679688 " fill-opacity="1" fill-rule="nonzero"/></g><g clip-path="url(#2656b8f599)"><path fill="#fab400" d="M 759.921875 504.679688 L 575.878906 504.679688 C 568.621094 504.679688 562.734375 510.5625 562.734375 517.820312 L 562.734375 741.234375 C 562.734375 755.75 574.507812 767.519531 589.027344 767.519531 L 746.777344 767.519531 C 761.300781 767.519531 773.070312 755.75 773.070312 741.234375 L 773.070312 517.820312 C 773.070312 510.5625 767.183594 504.679688 759.921875 504.679688 " fill-opacity="1" fill-rule="nonzero"/></g><path fill="#82000a" d="M 181.503906 557.246094 L 102.625 557.246094 C 95.367188 557.246094 89.480469 551.363281 89.480469 544.105469 C 89.480469 536.847656 95.367188 530.960938 102.625 530.960938 L 181.503906 530.960938 C 188.761719 530.960938 194.648438 536.847656 194.648438 544.105469 C 194.648438 551.363281 188.761719 557.246094 181.503906 557.246094 " fill-opacity="1" fill-rule="nonzero"/><path fill="#00648c" d="M 444.421875 557.246094 L 365.546875 557.246094 C 358.285156 557.246094 352.402344 551.359375 352.402344 544.105469 C 352.402344 536.847656 358.285156 530.960938 365.546875 530.960938 L 444.421875 530.960938 C 451.683594 530.960938 457.566406 536.847656 457.566406 544.105469 C 457.566406 551.359375 451.683594 557.246094 444.421875 557.246094 " fill-opacity="1" fill-rule="nonzero"/><path fill="#be7800" d="M 707.339844 557.246094 L 628.46875 557.246094 C 621.203125 557.246094 615.320312 551.363281 615.320312 544.105469 C 615.320312 536.847656 621.203125 530.960938 628.46875 530.960938 L 707.339844 530.960938 C 714.605469 530.960938 720.488281 536.847656 720.488281 544.105469 C 720.488281 551.363281 714.605469 557.246094 707.339844 557.246094 " fill-opacity="1" fill-rule="nonzero"/><path fill="#a00028" d="M 207.792969 675.523438 C 207.792969 711.816406 178.367188 741.234375 142.066406 741.234375 C 105.761719 741.234375 76.335938 711.816406 76.335938 675.523438 C 76.335938 639.234375 105.761719 609.816406 142.066406 609.816406 C 178.367188 609.816406 207.792969 639.234375 207.792969 675.523438 " fill-opacity="1" fill-rule="nonzero"/><path fill="#0082aa" d="M 444.421875 728.09375 L 365.546875 728.09375 C 358.285156 728.09375 352.402344 722.210938 352.402344 714.953125 L 352.402344 636.101562 C 352.402344 628.839844 358.285156 622.957031 365.546875 622.957031 L 444.421875 622.957031 C 451.683594 622.957031 457.566406 628.839844 457.566406 636.101562 L 457.566406 714.953125 C 457.566406 722.210938 451.683594 728.09375 444.421875 728.09375 " fill-opacity="1" fill-rule="nonzero"/><path fill="#dc9600" d="M 679.691406 606.476562 L 695.222656 637.933594 L 729.949219 642.980469 C 740.730469 644.546875 745.035156 657.792969 737.234375 665.394531 L 712.105469 689.882812 L 718.035156 724.460938 C 719.878906 735.195312 708.609375 743.382812 698.964844 738.316406 L 667.902344 721.988281 L 636.84375 738.316406 C 627.199219 743.382812 615.925781 735.195312 617.765625 724.460938 L 623.695312 689.882812 L 598.570312 665.394531 C 590.765625 657.792969 595.070312 644.546875 605.855469 642.980469 L 640.582031 637.933594 L 656.113281 606.476562 C 660.9375 596.707031 674.871094 596.707031 679.691406 606.476562 " fill-opacity="1" fill-rule="nonzero"/><path fill="#f0f0f0" d="M 207.792969 662.382812 C 207.792969 698.675781 178.367188 728.09375 142.066406 728.09375 C 105.761719 728.09375 76.335938 698.675781 76.335938 662.382812 C 76.335938 626.09375 105.761719 596.671875 142.066406 596.671875 C 178.367188 596.671875 207.792969 626.09375 207.792969 662.382812 " fill-opacity="1" fill-rule="nonzero"/><path fill="#c80a50" d="M 365.542969 123.558594 C 365.542969 159.847656 336.117188 189.265625 299.816406 189.265625 C 263.515625 189.265625 234.085938 159.847656 234.085938 123.558594 C 234.085938 87.265625 263.515625 57.847656 299.816406 57.847656 C 336.117188 57.847656 365.542969 87.265625 365.542969 123.558594 " fill-opacity="1" fill-rule="nonzero"/><path fill="#f0f0f0" d="M 444.421875 714.953125 L 365.546875 714.953125 C 358.285156 714.953125 352.402344 709.066406 352.402344 701.808594 L 352.402344 622.957031 C 352.402344 615.699219 358.285156 609.816406 365.546875 609.816406 L 444.421875 609.816406 C 451.683594 609.816406 457.566406 615.699219 457.566406 622.957031 L 457.566406 701.808594 C 457.566406 709.066406 451.683594 714.953125 444.421875 714.953125 " fill-opacity="1" fill-rule="nonzero"/><path fill="#00a0c8" d="M 444.421875 294.402344 L 365.542969 294.402344 C 358.285156 294.402344 352.398438 288.523438 352.398438 281.265625 L 352.398438 202.410156 C 352.398438 195.152344 358.285156 189.269531 365.542969 189.269531 L 444.421875 189.269531 C 451.679688 189.269531 457.566406 195.152344 457.566406 202.410156 L 457.566406 281.265625 C 457.566406 288.523438 451.679688 294.402344 444.421875 294.402344 " fill-opacity="1" fill-rule="nonzero"/><path fill="#f0f0f0" d="M 679.691406 593.332031 L 695.222656 624.792969 L 729.949219 629.835938 C 740.730469 631.40625 745.035156 644.648438 737.234375 652.253906 L 712.105469 676.742188 L 718.035156 711.320312 C 719.878906 722.054688 708.609375 730.242188 698.964844 725.171875 L 667.902344 708.847656 L 636.84375 725.171875 C 627.199219 730.242188 615.925781 722.054688 617.765625 711.320312 L 623.695312 676.742188 L 598.570312 652.253906 C 590.765625 644.648438 595.070312 631.40625 605.855469 629.835938 L 640.582031 624.792969 L 656.113281 593.332031 C 660.9375 583.566406 674.871094 583.566406 679.691406 593.332031 " fill-opacity="1" fill-rule="nonzero"/><path fill="#fab400" d="M 540.644531 52.03125 L 556.175781 83.488281 L 590.902344 88.535156 C 601.6875 90.101562 605.988281 103.351562 598.1875 110.949219 L 573.058594 135.4375 L 578.988281 170.019531 C 580.832031 180.753906 569.5625 188.941406 559.914062 183.871094 L 528.855469 167.542969 L 497.796875 183.871094 C 488.148438 188.941406 476.878906 180.753906 478.71875 170.019531 L 484.652344 135.4375 L 459.523438 110.949219 C 451.71875 103.351562 456.027344 90.101562 466.808594 88.535156 L 501.535156 83.488281 L 517.066406 52.03125 C 521.886719 42.265625 535.824219 42.265625 540.644531 52.03125 " fill-opacity="1" fill-rule="nonzero"/><path fill="#f0c8a0" d="M 461.414062 421.976562 L 414.277344 469.101562 C 409.144531 474.234375 400.820312 474.234375 395.6875 469.101562 L 348.546875 421.976562 C 340.265625 413.695312 346.132812 399.539062 357.84375 399.539062 L 378.691406 399.539062 L 378.691406 294.40625 L 431.273438 294.40625 L 431.273438 399.539062 L 452.121094 399.539062 C 463.832031 399.539062 469.695312 413.695312 461.414062 421.976562 " fill-opacity="1" fill-rule="nonzero"/></svg>