<svg xmlns="http://www.w3.org/2000/svg" xmlns:xlink="http://www.w3.org/1999/xlink" width="1080" zoomAndPan="magnify" viewBox="0 0 810 809.999993" height="1080" preserveAspectRatio="xMidYMid meet" version="1.0"><path fill="#ffcb46" d="M 680.800781 467.988281 L 629.136719 370.667969 C 622.644531 358.429688 619.386719 344.773438 619.394531 330.925781 C 619.394531 330.859375 619.394531 330.796875 619.394531 330.722656 C 619.394531 195.828125 510.398438 86.382812 375.667969 85.671875 C 240.238281 84.957031 130.316406 193.394531 129.289062 328.832031 C 128.574219 423.285156 181.316406 505.484375 259.054688 547.011719 L 259.054688 724.25 L 465.289062 724.25 L 465.289062 617.804688 L 557.449219 617.804688 C 589.226562 617.804688 614.980469 592.050781 614.980469 560.277344 L 614.980469 467.988281 L 680.800781 467.988281 " fill-opacity="1" fill-rule="nonzero"/><path fill="#000000" d="M 8.0625 273.738281 C 3.632812 273.738281 0.0351562 270.152344 0.0351562 265.714844 L 0.0351562 7.984375 C 0.0351562 3.546875 3.632812 -0.0390625 8.0625 -0.0390625 L 238.515625 -0.0390625 C 242.949219 -0.0390625 246.539062 3.546875 246.539062 7.984375 C 246.539062 12.414062 242.949219 16.007812 238.515625 16.007812 L 16.085938 16.007812 L 16.085938 265.714844 C 16.085938 270.152344 12.492188 273.738281 8.0625 273.738281 " fill-opacity="1" fill-rule="nonzero"/><path fill="#000000" d="M 802.015625 273.738281 C 797.585938 273.738281 793.992188 270.152344 793.992188 265.714844 L 793.992188 16.007812 L 571.566406 16.007812 C 567.136719 16.007812 563.539062 12.414062 563.539062 7.984375 C 563.539062 3.546875 567.136719 -0.0390625 571.566406 -0.0390625 L 802.015625 -0.0390625 C 806.453125 -0.0390625 810.039062 3.546875 810.039062 7.984375 L 810.039062 265.714844 C 810.039062 270.152344 806.453125 273.738281 802.015625 273.738281 " fill-opacity="1" fill-rule="nonzero"/><path fill="#000000" d="M 802.015625 809.960938 L 571.566406 809.960938 C 567.136719 809.960938 563.539062 806.375 563.539062 801.9375 C 563.539062 797.507812 567.136719 793.914062 571.566406 793.914062 L 793.992188 793.914062 L 793.992188 598.765625 C 793.992188 594.335938 797.585938 590.742188 802.015625 590.742188 C 806.453125 590.742188 810.039062 594.335938 810.039062 598.765625 L 810.039062 801.9375 C 810.039062 806.375 806.453125 809.960938 802.015625 809.960938 " fill-opacity="1" fill-rule="nonzero"/><path fill="#000000" d="M 236.113281 809.960938 L 8.0625 809.960938 C 3.632812 809.960938 0.0351562 806.375 0.0351562 801.9375 L 0.0351562 598.765625 C 0.0351562 594.335938 3.632812 590.742188 8.0625 590.742188 C 12.492188 590.742188 16.085938 594.335938 16.085938 598.765625 L 16.085938 793.914062 L 236.113281 793.914062 C 240.542969 793.914062 244.136719 797.507812 244.136719 801.9375 C 244.136719 806.375 240.542969 809.960938 236.113281 809.960938 " fill-opacity="1" fill-rule="nonzero"/><path fill="#000000" d="M 370.582031 195.53125 C 300.480469 195.53125 243.449219 252.566406 243.449219 322.667969 C 243.449219 392.769531 300.480469 449.796875 370.582031 449.796875 C 440.683594 449.796875 497.714844 392.769531 497.714844 322.667969 C 497.714844 252.566406 440.683594 195.53125 370.582031 195.53125 Z M 370.582031 465.84375 C 291.632812 465.84375 227.402344 401.613281 227.402344 322.667969 C 227.402344 243.714844 291.632812 179.484375 370.582031 179.484375 C 449.53125 179.484375 513.761719 243.714844 513.761719 322.667969 C 513.761719 401.613281 449.53125 465.84375 370.582031 465.84375 " fill-opacity="1" fill-rule="nonzero"/><path fill="#ffffff" d="M 505.738281 322.667969 C 505.738281 397.3125 445.222656 457.820312 370.582031 457.820312 C 295.933594 457.820312 235.425781 397.3125 235.425781 322.667969 C 235.425781 248.023438 295.933594 187.507812 370.582031 187.507812 C 445.222656 187.507812 505.738281 248.023438 505.738281 322.667969 " fill-opacity="1" fill-rule="nonzero"/><path fill="#000000" d="M 370.582031 195.53125 C 300.480469 195.53125 243.449219 252.566406 243.449219 322.667969 C 243.449219 392.769531 300.480469 449.796875 370.582031 449.796875 C 440.683594 449.796875 497.714844 392.769531 497.714844 322.667969 C 497.714844 252.566406 440.683594 195.53125 370.582031 195.53125 Z M 370.582031 465.84375 C 291.632812 465.84375 227.402344 401.613281 227.402344 322.667969 C 227.402344 243.714844 291.632812 179.484375 370.582031 179.484375 C 449.53125 179.484375 513.761719 243.714844 513.761719 322.667969 C 513.761719 401.613281 449.53125 465.84375 370.582031 465.84375 " fill-opacity="1" fill-rule="nonzero"/><path fill="#ffcb46" d="M 406.226562 322.667969 C 406.226562 342.347656 390.269531 358.320312 370.582031 358.320312 C 350.890625 358.320312 334.933594 342.347656 334.933594 322.667969 C 334.933594 302.976562 350.890625 287.019531 370.582031 287.019531 C 390.269531 287.019531 406.226562 302.976562 406.226562 322.667969 " fill-opacity="1" fill-rule="nonzero"/><path fill="#000000" d="M 370.582031 218.324219 C 366.148438 218.324219 362.558594 214.738281 362.558594 210.300781 L 362.558594 166.40625 C 362.558594 161.976562 366.148438 158.382812 370.582031 158.382812 C 375.011719 158.382812 378.605469 161.976562 378.605469 166.40625 L 378.605469 210.300781 C 378.605469 214.738281 375.011719 218.324219 370.582031 218.324219 " fill-opacity="1" fill-rule="nonzero"/><path fill="#000000" d="M 370.582031 486.957031 C 366.148438 486.957031 362.558594 483.359375 362.558594 478.933594 L 362.558594 435.023438 C 362.558594 430.59375 366.148438 427 370.582031 427 C 375.011719 427 378.605469 430.59375 378.605469 435.023438 L 378.605469 478.933594 C 378.605469 483.359375 375.011719 486.957031 370.582031 486.957031 " fill-opacity="1" fill-rule="nonzero"/><path fill="#000000" d="M 526.839844 330.691406 L 482.941406 330.691406 C 478.515625 330.691406 474.917969 327.097656 474.917969 322.667969 C 474.917969 318.230469 478.515625 314.644531 482.941406 314.644531 L 526.839844 314.644531 C 531.269531 314.644531 534.867188 318.230469 534.867188 322.667969 C 534.867188 327.097656 531.269531 330.691406 526.839844 330.691406 " fill-opacity="1" fill-rule="nonzero"/><path fill="#000000" d="M 258.21875 330.691406 L 214.320312 330.691406 C 209.886719 330.691406 206.296875 327.097656 206.296875 322.667969 C 206.296875 318.230469 209.886719 314.644531 214.320312 314.644531 L 258.21875 314.644531 C 262.648438 314.644531 266.246094 318.230469 266.246094 322.667969 C 266.246094 327.097656 262.648438 330.691406 258.21875 330.691406 " fill-opacity="1" fill-rule="nonzero"/></svg>