<svg xmlns="http://www.w3.org/2000/svg" xmlns:xlink="http://www.w3.org/1999/xlink" width="1080" zoomAndPan="magnify" viewBox="0 0 810 809.999993" height="1080" preserveAspectRatio="xMidYMid meet" version="1.0"><defs><clipPath id="6c3f12b768"><path d="M 284 104 L 753.792969 104 L 753.792969 297 L 284 297 Z M 284 104 " clip-rule="nonzero"/></clipPath><clipPath id="dda62311dc"><path d="M 56.292969 56.292969 L 345 56.292969 L 345 345 L 56.292969 345 Z M 56.292969 56.292969 " clip-rule="nonzero"/></clipPath><clipPath id="47b44d9f30"><path d="M 56.292969 80 L 321 80 L 321 345 L 56.292969 345 Z M 56.292969 80 " clip-rule="nonzero"/></clipPath><clipPath id="cb4928c0a5"><path d="M 56.292969 465 L 225 465 L 225 706 L 56.292969 706 Z M 56.292969 465 " clip-rule="nonzero"/></clipPath><clipPath id="6e72e53069"><path d="M 308 561 L 742 561 L 742 753.792969 L 308 753.792969 Z M 308 561 " clip-rule="nonzero"/></clipPath></defs><path fill="#ef3a49" d="M 585.429688 585.429688 L 152.5 585.429688 L 152.5 393.019531 L 585.429688 393.019531 L 585.429688 585.429688 " fill-opacity="1" fill-rule="nonzero"/><path fill="#e72a31" d="M 585.429688 489.226562 L 585.429688 585.429688 L 152.5 585.429688 L 152.5 393.019531 L 237.386719 393.019531 C 243.304688 447.132812 289.246094 489.226562 344.914062 489.226562 L 585.429688 489.226562 " fill-opacity="1" fill-rule="nonzero"/><path fill="#ecf5f4" d="M 272.757812 465.171875 C 272.757812 445.253906 256.597656 429.09375 236.683594 429.09375 C 216.765625 429.09375 200.605469 445.253906 200.605469 465.171875 C 200.605469 471.796875 206.007812 477.199219 212.628906 477.199219 C 219.253906 477.199219 224.65625 471.796875 224.65625 465.171875 C 224.65625 458.550781 230.058594 453.148438 236.683594 453.148438 C 242.273438 453.148438 246.96875 456.953125 248.332031 462.121094 L 202.625 530.65625 C 200.179688 534.367188 199.945312 539.113281 202.011719 543.011719 C 204.128906 546.910156 208.214844 549.355469 212.628906 549.355469 L 260.734375 549.355469 C 267.355469 549.355469 272.757812 543.953125 272.757812 537.328125 C 272.757812 530.703125 267.355469 525.300781 260.734375 525.300781 L 235.085938 525.300781 L 270.738281 471.84375 C 272.054688 469.871094 272.757812 467.570312 272.757812 465.171875 " fill-opacity="1" fill-rule="nonzero"/><path fill="#ecf5f4" d="M 380.992188 465.171875 L 525.300781 465.171875 C 531.925781 465.171875 537.328125 459.769531 537.328125 453.148438 C 537.328125 446.523438 531.925781 441.121094 525.300781 441.121094 L 380.992188 441.121094 C 374.367188 441.121094 368.964844 446.523438 368.964844 453.148438 C 368.964844 459.769531 374.367188 465.171875 380.992188 465.171875 " fill-opacity="1" fill-rule="nonzero"/><path fill="#d2dbda" d="M 537.328125 501.25 C 537.328125 494.628906 531.925781 489.226562 525.300781 489.226562 L 320.863281 489.226562 C 314.238281 489.226562 308.835938 494.628906 308.835938 501.25 C 308.835938 507.875 314.238281 513.277344 320.863281 513.277344 L 525.300781 513.277344 C 531.925781 513.277344 537.328125 507.875 537.328125 501.25 " fill-opacity="1" fill-rule="nonzero"/><path fill="#d2dbda" d="M 272.757812 537.328125 C 272.757812 543.953125 267.355469 549.355469 260.734375 549.355469 L 212.628906 549.355469 C 208.167969 549.355469 204.082031 546.957031 202.058594 542.964844 C 199.898438 539.113281 200.132812 534.320312 202.625 530.703125 L 248.332031 462.167969 C 246.921875 457 242.226562 453.148438 236.683594 453.148438 C 230.058594 453.148438 224.65625 458.550781 224.65625 465.171875 C 224.65625 471.796875 219.253906 477.199219 212.628906 477.199219 C 206.007812 477.199219 200.605469 471.796875 200.605469 465.171875 C 200.605469 445.347656 216.859375 429.09375 236.683594 429.09375 C 241.003906 429.09375 245.324219 429.941406 249.175781 431.398438 C 255.097656 442.671875 263.035156 452.914062 272.523438 461.460938 C 272.617188 462.636719 272.757812 463.859375 272.757812 465.171875 C 272.757812 467.570312 272.054688 469.871094 270.738281 471.796875 L 235.132812 525.300781 L 260.734375 525.300781 C 267.355469 525.300781 272.757812 530.703125 272.757812 537.328125 " fill-opacity="1" fill-rule="nonzero"/><g clip-path="url(#6c3f12b768)"><path fill="#66cde1" d="M 753.792969 296.8125 L 284.785156 296.8125 L 284.785156 104.398438 L 753.792969 104.398438 L 753.792969 296.8125 " fill-opacity="1" fill-rule="nonzero"/><path fill="#49b9da" d="M 753.792969 200.605469 L 753.792969 296.8125 L 284.785156 296.8125 L 284.785156 104.398438 L 369.671875 104.398438 C 375.589844 158.511719 421.53125 200.605469 477.199219 200.605469 L 753.792969 200.605469 " fill-opacity="1" fill-rule="nonzero"/></g><path fill="#face08" d="M 405.042969 236.683594 C 398.421875 236.683594 393.019531 242.082031 393.019531 248.707031 C 393.019531 255.332031 398.421875 260.734375 405.042969 260.734375 L 453.148438 260.734375 C 459.769531 260.734375 465.171875 255.332031 465.171875 248.707031 C 465.171875 242.082031 459.769531 236.683594 453.148438 236.683594 L 441.121094 236.683594 L 441.121094 152.5 C 441.121094 147.613281 438.207031 143.246094 433.699219 141.414062 C 429.1875 139.535156 424.023438 140.570312 420.59375 143.996094 L 396.542969 168.050781 C 391.84375 172.746094 391.84375 180.359375 396.542969 185.054688 C 401.238281 189.753906 408.847656 189.753906 413.546875 185.054688 L 417.070312 181.53125 L 417.070312 236.683594 L 405.042969 236.683594 " fill-opacity="1" fill-rule="nonzero"/><path fill="#face08" d="M 549.355469 164.527344 L 693.664062 164.527344 C 700.289062 164.527344 705.691406 159.125 705.691406 152.5 C 705.691406 145.878906 700.289062 140.476562 693.664062 140.476562 L 549.355469 140.476562 C 542.730469 140.476562 537.328125 145.878906 537.328125 152.5 C 537.328125 159.125 542.730469 164.527344 549.355469 164.527344 " fill-opacity="1" fill-rule="nonzero"/><path fill="#face08" d="M 489.226562 212.628906 L 693.664062 212.628906 C 700.289062 212.628906 705.691406 207.226562 705.691406 200.605469 C 705.691406 193.980469 700.289062 188.578125 693.664062 188.578125 L 489.226562 188.578125 C 482.601562 188.578125 477.199219 193.980469 477.199219 200.605469 C 477.199219 207.226562 482.601562 212.628906 489.226562 212.628906 " fill-opacity="1" fill-rule="nonzero"/><path fill="#f9af0b" d="M 693.664062 236.683594 L 513.277344 236.683594 C 506.652344 236.683594 501.25 242.082031 501.25 248.707031 C 501.25 255.332031 506.652344 260.734375 513.277344 260.734375 L 693.664062 260.734375 C 700.289062 260.734375 705.691406 255.332031 705.691406 248.707031 C 705.691406 242.082031 700.289062 236.683594 693.664062 236.683594 " fill-opacity="1" fill-rule="nonzero"/><path fill="#f9af0b" d="M 396.492188 185.101562 C 391.796875 180.40625 391.796875 172.699219 396.492188 168.003906 L 398.183594 166.3125 C 403.726562 172.230469 409.835938 177.539062 416.601562 181.953125 L 413.59375 185.101562 C 408.894531 189.800781 401.191406 189.800781 396.492188 185.101562 " fill-opacity="1" fill-rule="nonzero"/><path fill="#f9af0b" d="M 465.171875 248.707031 C 465.171875 255.332031 459.769531 260.734375 453.148438 260.734375 L 405.042969 260.734375 C 398.421875 260.734375 393.019531 255.332031 393.019531 248.707031 C 393.019531 242.082031 398.421875 236.683594 405.042969 236.683594 L 417.070312 236.683594 L 417.070312 182.332031 C 424.398438 187.261719 432.570312 191.351562 441.121094 194.355469 L 441.121094 236.683594 L 453.148438 236.683594 C 459.769531 236.683594 465.171875 242.082031 465.171875 248.707031 " fill-opacity="1" fill-rule="nonzero"/><path fill="#f9af0b" d="M 705.691406 200.605469 C 705.691406 207.226562 700.289062 212.628906 693.664062 212.628906 L 489.226562 212.628906 C 482.601562 212.628906 477.199219 207.226562 477.199219 200.605469 L 705.691406 200.605469 " fill-opacity="1" fill-rule="nonzero"/><g clip-path="url(#dda62311dc)"><path fill="#ecf5f4" d="M 200.605469 260.734375 C 167.390625 260.734375 140.476562 233.816406 140.476562 200.605469 C 140.476562 167.390625 167.390625 140.476562 200.605469 140.476562 C 233.816406 140.476562 260.734375 167.390625 260.734375 200.605469 C 260.734375 233.816406 233.816406 260.734375 200.605469 260.734375 Z M 344.914062 236.683594 L 344.914062 164.527344 L 315.320312 164.527344 C 313.160156 157.808594 310.386719 151.277344 307.144531 145.03125 L 328.191406 124.128906 L 277.082031 73.015625 L 256.175781 94.0625 C 249.929688 90.820312 243.398438 88.050781 236.683594 85.886719 L 236.683594 56.292969 L 164.527344 56.292969 L 164.527344 85.886719 C 157.808594 88.050781 151.277344 90.820312 145.03125 94.0625 L 124.128906 73.015625 L 73.015625 124.128906 L 94.0625 145.03125 C 90.820312 151.277344 88.050781 157.808594 85.886719 164.527344 L 56.292969 164.527344 L 56.292969 236.683594 L 85.886719 236.683594 C 88.050781 243.398438 90.820312 249.929688 94.0625 256.175781 L 73.015625 277.082031 L 124.128906 328.191406 L 145.03125 307.144531 C 151.277344 310.386719 157.808594 313.160156 164.527344 315.320312 L 164.527344 344.914062 L 236.683594 344.914062 L 236.683594 315.320312 C 243.398438 313.160156 249.929688 310.386719 256.175781 307.144531 L 277.082031 328.191406 L 328.191406 277.082031 L 307.144531 256.175781 C 310.386719 249.929688 313.160156 243.398438 315.320312 236.683594 L 344.914062 236.683594 " fill-opacity="1" fill-rule="nonzero"/></g><g clip-path="url(#47b44d9f30)"><path fill="#d2dbda" d="M 260.734375 296.8125 C 174.390625 296.8125 104.398438 226.816406 104.398438 140.476562 C 104.398438 119.429688 108.625 99.230469 116.1875 80.957031 L 73.015625 124.128906 L 94.0625 145.03125 C 90.820312 151.277344 88.050781 157.808594 85.886719 164.527344 L 56.292969 164.527344 L 56.292969 236.683594 L 85.886719 236.683594 C 88.050781 243.398438 90.820312 249.929688 94.0625 256.175781 L 73.015625 277.082031 L 124.128906 328.191406 L 145.03125 307.144531 C 151.277344 310.386719 157.808594 313.160156 164.527344 315.320312 L 164.527344 344.914062 L 236.683594 344.914062 L 236.683594 315.320312 C 243.398438 313.160156 249.929688 310.386719 256.175781 307.144531 L 277.082031 328.191406 L 320.253906 285.019531 C 301.976562 292.582031 281.777344 296.8125 260.734375 296.8125 " fill-opacity="1" fill-rule="nonzero"/></g><path fill="#d2dbda" d="M 200.605469 260.734375 C 167.390625 260.734375 140.476562 233.816406 140.476562 200.605469 C 140.476562 167.390625 167.390625 140.476562 200.605469 140.476562 C 233.816406 140.476562 260.734375 167.390625 260.734375 200.605469 C 260.734375 233.816406 233.816406 260.734375 200.605469 260.734375 Z M 200.605469 116.421875 C 154.050781 116.421875 116.421875 154.050781 116.421875 200.605469 C 116.421875 247.15625 154.050781 284.785156 200.605469 284.785156 C 247.15625 284.785156 284.785156 247.15625 284.785156 200.605469 C 284.785156 154.050781 247.15625 116.421875 200.605469 116.421875 " fill-opacity="1" fill-rule="nonzero"/><path fill="#8f9697" d="M 116.421875 200.746094 C 116.5625 247.15625 154.050781 284.644531 200.464844 284.785156 C 162.601562 268.90625 132.300781 238.609375 116.421875 200.746094 " fill-opacity="1" fill-rule="nonzero"/><path fill="#8f9697" d="M 705.691406 332.886719 C 699.066406 332.886719 693.664062 338.289062 693.664062 344.914062 L 693.664062 441.121094 L 662.566406 441.121094 L 666.089844 437.597656 C 670.785156 432.902344 670.785156 425.289062 666.089844 420.59375 C 661.390625 415.894531 653.78125 415.894531 649.085938 420.59375 L 625.03125 444.644531 C 620.335938 449.34375 620.335938 456.953125 625.03125 461.648438 L 649.085938 485.703125 C 651.433594 488.050781 654.488281 489.226562 657.585938 489.226562 C 660.6875 489.226562 663.742188 488.050781 666.089844 485.703125 C 670.785156 481.003906 670.785156 473.394531 666.089844 468.695312 L 662.566406 465.171875 L 705.691406 465.171875 C 712.3125 465.171875 717.714844 459.769531 717.714844 453.148438 L 717.714844 344.914062 C 717.714844 338.289062 712.3125 332.886719 705.691406 332.886719 " fill-opacity="1" fill-rule="nonzero"/><g clip-path="url(#cb4928c0a5)"><path fill="#8f9697" d="M 197.082031 637.058594 C 192.382812 632.359375 184.773438 632.359375 180.074219 637.058594 C 175.378906 641.757812 175.378906 649.367188 180.074219 654.0625 L 183.597656 657.585938 L 80.34375 657.585938 L 80.34375 489.226562 L 116.421875 489.226562 C 123.046875 489.226562 128.449219 483.824219 128.449219 477.199219 C 128.449219 470.574219 123.046875 465.171875 116.421875 465.171875 L 68.320312 465.171875 C 61.695312 465.171875 56.292969 470.574219 56.292969 477.199219 L 56.292969 669.613281 C 56.292969 676.234375 61.695312 681.636719 68.320312 681.636719 L 183.597656 681.636719 L 180.074219 685.160156 C 175.378906 689.859375 175.378906 697.46875 180.074219 702.167969 C 182.425781 704.515625 185.476562 705.691406 188.578125 705.691406 C 191.679688 705.691406 194.730469 704.515625 197.082031 702.167969 L 221.132812 678.117188 C 225.832031 673.417969 225.832031 665.808594 221.132812 661.109375 L 197.082031 637.058594 " fill-opacity="1" fill-rule="nonzero"/></g><g clip-path="url(#6e72e53069)"><path fill="#f8ec08" d="M 741.769531 753.792969 L 308.835938 753.792969 L 308.835938 561.378906 L 741.769531 561.378906 L 741.769531 753.792969 " fill-opacity="1" fill-rule="nonzero"/><path fill="#face08" d="M 741.769531 657.585938 L 741.769531 753.792969 L 308.835938 753.792969 L 308.835938 561.378906 L 393.722656 561.378906 C 399.640625 615.496094 445.585938 657.585938 501.25 657.585938 L 741.769531 657.585938 " fill-opacity="1" fill-rule="nonzero"/></g><path fill="#66cde1" d="M 405.042969 597.457031 C 385.125 597.457031 368.964844 613.617188 368.964844 633.535156 C 368.964844 640.160156 374.367188 645.5625 380.992188 645.5625 C 387.617188 645.5625 393.019531 640.160156 393.019531 633.535156 C 393.019531 626.910156 398.421875 621.507812 405.042969 621.507812 C 411.667969 621.507812 417.070312 626.910156 417.070312 633.535156 C 417.070312 640.160156 411.667969 645.5625 405.042969 645.5625 C 398.421875 645.5625 393.019531 650.964844 393.019531 657.585938 C 393.019531 664.210938 398.421875 669.613281 405.042969 669.613281 C 411.667969 669.613281 417.070312 675.015625 417.070312 681.636719 C 417.070312 688.261719 411.667969 693.664062 405.042969 693.664062 C 398.421875 693.664062 393.019531 688.261719 393.019531 681.636719 C 393.019531 675.015625 387.617188 669.613281 380.992188 669.613281 C 374.367188 669.613281 368.964844 675.015625 368.964844 681.636719 C 368.964844 701.554688 385.125 717.714844 405.042969 717.714844 C 424.960938 717.714844 441.121094 701.554688 441.121094 681.636719 C 441.121094 672.382812 437.644531 663.976562 431.914062 657.585938 C 437.644531 651.199219 441.121094 642.789062 441.121094 633.535156 C 441.121094 613.617188 424.960938 597.457031 405.042969 597.457031 " fill-opacity="1" fill-rule="nonzero"/><path fill="#66cde1" d="M 681.636719 597.457031 L 537.328125 597.457031 C 530.703125 597.457031 525.300781 602.859375 525.300781 609.484375 C 525.300781 616.105469 530.703125 621.507812 537.328125 621.507812 L 681.636719 621.507812 C 688.261719 621.507812 693.664062 616.105469 693.664062 609.484375 C 693.664062 602.859375 688.261719 597.457031 681.636719 597.457031 " fill-opacity="1" fill-rule="nonzero"/><path fill="#66cde1" d="M 681.636719 645.5625 L 489.226562 645.5625 C 482.601562 645.5625 477.199219 650.964844 477.199219 657.585938 C 477.199219 664.210938 482.601562 669.613281 489.226562 669.613281 L 681.636719 669.613281 C 688.261719 669.613281 693.664062 664.210938 693.664062 657.585938 C 693.664062 650.964844 688.261719 645.5625 681.636719 645.5625 " fill-opacity="1" fill-rule="nonzero"/><path fill="#49b9da" d="M 681.636719 693.664062 L 489.226562 693.664062 C 482.601562 693.664062 477.199219 699.066406 477.199219 705.691406 C 477.199219 712.3125 482.601562 717.714844 489.226562 717.714844 L 681.636719 717.714844 C 688.261719 717.714844 693.664062 712.3125 693.664062 705.691406 C 693.664062 699.066406 688.261719 693.664062 681.636719 693.664062 " fill-opacity="1" fill-rule="nonzero"/><path fill="#49b9da" d="M 441.121094 681.636719 C 441.121094 701.460938 424.914062 717.714844 405.042969 717.714844 C 385.21875 717.714844 368.964844 701.460938 368.964844 681.636719 C 368.964844 675.015625 374.367188 669.613281 380.992188 669.613281 C 387.617188 669.613281 393.019531 675.015625 393.019531 681.636719 C 393.019531 688.261719 398.421875 693.664062 405.042969 693.664062 C 411.667969 693.664062 417.070312 688.261719 417.070312 681.636719 C 417.070312 675.015625 411.667969 669.613281 405.042969 669.613281 C 398.421875 669.613281 393.019531 664.210938 393.019531 657.585938 C 393.019531 650.964844 398.421875 645.5625 405.042969 645.5625 C 411.667969 645.5625 417.070312 640.160156 417.070312 633.535156 C 417.070312 626.910156 411.667969 621.507812 405.042969 621.507812 C 398.421875 621.507812 393.019531 626.910156 393.019531 633.535156 C 393.019531 640.160156 387.617188 645.5625 380.992188 645.5625 C 374.367188 645.5625 368.964844 640.160156 368.964844 633.535156 C 368.964844 613.945312 384.84375 597.832031 404.339844 597.457031 C 412.605469 614.273438 425.242188 628.601562 440.746094 638.9375 C 439.664062 646.03125 436.421875 652.558594 431.867188 657.585938 C 437.644531 663.976562 441.121094 672.382812 441.121094 681.636719 " fill-opacity="1" fill-rule="nonzero"/><path fill="#49b9da" d="M 693.664062 657.585938 C 693.664062 664.210938 688.261719 669.613281 681.636719 669.613281 L 489.226562 669.613281 C 482.601562 669.613281 477.199219 664.210938 477.199219 657.585938 C 477.199219 656.601562 477.339844 655.800781 477.574219 654.957031 C 485.136719 656.601562 493.078125 657.585938 501.25 657.585938 L 693.664062 657.585938 " fill-opacity="1" fill-rule="nonzero"/></svg>